<svg xmlns="http://www.w3.org/2000/svg" version="1.1" viewBox="190.37 320.19 896.72 143.17">
<path d="M0 0 C1.22847656 -0.06251953 2.45695313 -0.12503906 3.72265625 -0.18945312 C12.34498033 -0.34359001 12.34498033 -0.34359001 15.70117188 1.82080078 C19.98474809 6.99607762 22.27543704 13.93013049 24.85742188 20.09326172 C26.80089899 24.7246704 28.87861719 29.28814503 30.984375 33.84765625 C31.34866608 34.63828461 31.71295715 35.42891296 32.08828735 36.24349976 C33.22364214 38.70487465 34.36149722 41.16507976 35.5 43.625 C35.89362732 44.47634521 36.28725464 45.32769043 36.69281006 46.20483398 C48.08962135 71.02205608 48.08962135 71.02205608 60.3125 95.4375 C60.79710693 96.36755859 60.79710693 96.36755859 61.29150391 97.31640625 C62.91488307 100.51776363 62.91488307 100.51776363 65.75 102.5625 C65.67935333 101.52184387 65.60870667 100.48118774 65.53591919 99.40899658 C64.88590581 89.42089907 64.60046249 79.49560276 64.6171875 69.484375 C64.61651044 68.01523828 64.61553711 66.54610168 64.61428833 65.07696533 C64.61283206 62.03176788 64.61489922 58.98660018 64.61962891 55.94140625 C64.62534546 52.07681301 64.62202172 48.21228897 64.61605644 44.34769821 C64.61241163 41.32590225 64.61360691 38.30412223 64.61618423 35.28232574 C64.61684165 33.85845176 64.61606765 32.43457622 64.61370468 31.01070404 C64.60476266 24.11763128 64.67952898 17.22668984 65.00830078 10.34082031 C65.07611252 8.81101532 65.07611252 8.81101532 65.14529419 7.25030518 C65.89611703 3.91303689 67.08425491 2.65175212 69.75 0.5625 C72.2578125 0.3203125 72.2578125 0.3203125 74.875 0.6875 C75.74382812 0.79320312 76.61265625 0.89890625 77.5078125 1.0078125 C79.75 1.5625 79.75 1.5625 81.75 3.5625 C81.93304459 6.11370265 81.99136384 8.55490979 81.96118164 11.10595703 C81.95988723 11.88830247 81.95859282 12.67064791 81.95725918 13.47670078 C81.95077207 16.09135861 81.93027211 18.70572688 81.91015625 21.3203125 C81.9035735 23.16184665 81.89801782 25.00338472 81.89343262 26.84492493 C81.88218221 30.76090551 81.86537607 34.67680444 81.84402466 38.59274292 C81.78965456 48.68024954 81.76903879 58.76784327 81.75 68.85546875 C81.74783541 69.84707819 81.74567081 70.83868763 81.74344063 71.86034584 C81.70657209 90.20635311 81.94571105 108.53064155 82.48266602 126.86962891 C82.50735962 127.75651901 82.53205322 128.64340912 82.55749512 129.55717468 C82.60337505 131.16427617 82.65407349 132.77125133 82.71081543 134.37800598 C82.76186567 136.10546585 82.76202277 137.83432779 82.75 139.5625 C80.95539587 141.35710413 78.37197592 141.10711934 75.9375 141.375 C74.87917969 141.50519531 73.82085938 141.63539063 72.73046875 141.76953125 C69.75 141.5625 69.75 141.5625 67.62890625 140.171875 C64.90073607 136.38306485 63.25744089 132.30895305 61.5 128 C61.11086426 127.07050537 60.72172852 126.14101074 60.32080078 125.18334961 C59.12092114 122.31361719 57.93401336 119.43881028 56.75 116.5625 C52.6852647 106.72562026 48.59187381 97.01810699 43.7265625 87.54296875 C41.09486552 82.33331102 38.72474711 77.0011797 36.3125 71.6875 C32.34844968 62.97279049 28.25574536 54.35673274 23.90039062 45.83105469 C21.15721967 40.42155883 18.45906775 34.9891427 15.75 29.5625 C15.71765595 34.74998878 15.6991309 39.93743042 15.6875 45.125 C15.68555634 45.95798615 15.68361267 46.79097229 15.68161011 47.64920044 C15.6604337 61.09904403 15.80192888 74.54425848 16.0078125 87.9921875 C16.01992579 88.7921282 16.03203907 89.5920689 16.04451942 90.41625023 C16.16817096 98.56152884 16.29751147 106.7066713 16.44069672 114.85163116 C16.49421598 117.94634788 16.54382968 121.04111954 16.59263229 124.13591385 C16.61671902 125.59937334 16.64267699 127.06280328 16.6705513 128.52619553 C16.70881433 130.5394366 16.7404571 132.5528003 16.77172852 134.56616211 C16.80170677 136.27381996 16.80170677 136.27381996 16.83229065 138.01597595 C16.75 140.5625 16.75 140.5625 15.75 141.5625 C7.47065872 142.79075393 -1.02425209 142.69209003 -9.375 142.75 C-10.90471436 142.76945679 -10.90471436 142.76945679 -12.46533203 142.78930664 C-13.42810059 142.79051514 -14.39086914 142.79172363 -15.3828125 142.79296875 C-16.68049561 142.79913208 -16.68049561 142.79913208 -18.00439453 142.80541992 C-20.25 142.5625 -20.25 142.5625 -23.25 140.5625 C-24.70710579 136.50314021 -24.44915755 132.19396226 -24.48828125 127.9296875 C-24.49784851 127.04972107 -24.50741577 126.16975464 -24.51727295 125.26312256 C-24.54230316 122.32121244 -24.55452286 119.37950449 -24.5625 116.4375 C-24.56611542 115.41984558 -24.56973083 114.40219116 -24.57345581 113.35369873 C-24.60225581 92.83260335 -23.34200182 72.45636846 -21.76098633 52.00341797 C-21.62710762 50.26640121 -21.62710762 50.26640121 -21.49052429 48.49429321 C-21.31357523 46.21182675 -21.13386847 43.9295722 -20.95124817 41.64755249 C-20.50895899 35.9151496 -20.18163335 30.20425125 -20.03857422 24.45605469 C-20.0083165 23.31204193 -19.97805878 22.16802917 -19.94688416 20.98934937 C-19.89770311 18.82140288 -19.86510716 16.65299264 -19.85206604 14.48452759 C-19.69221179 7.2858116 -19.69221179 7.2858116 -17.33618164 3.43212891 C-12.47059588 -0.92839254 -6.2335504 0.13888221 0 0 Z " transform="translate(673.25,320.4375)"/>
<path d="M0 0 C1.22783203 -0.03673828 2.45566406 -0.07347656 3.72070312 -0.11132812 C5.49670898 -0.1200293 5.49670898 -0.1200293 7.30859375 -0.12890625 C8.92785767 -0.14739624 8.92785767 -0.14739624 10.57983398 -0.16625977 C14.6840001 0.83651799 16.3880103 3.14171349 18.5625 6.5625 C19.96365925 9.00844083 21.17194372 11.51331463 22.34765625 14.07421875 C22.68551147 14.79186905 23.0233667 15.50951935 23.37145996 16.24891663 C24.46497565 18.57852129 25.54522431 20.91399929 26.625 23.25 C27.38286079 24.87231397 28.14124803 26.49438211 28.90014648 28.11621094 C33.93164068 38.90013944 38.79604997 49.7523974 43.59155273 60.64306641 C50.11578557 75.41983572 57.62148349 89.50299535 65.5625 103.5625 C65.8925 103.5625 66.2225 103.5625 66.5625 103.5625 C66.40082336 102.43032043 66.23914673 101.29814087 66.0725708 100.13165283 C65.50436399 95.56140126 65.40774423 91.05700688 65.40136719 86.45605469 C65.39391983 85.1472081 65.39391983 85.1472081 65.38632202 83.81192017 C65.3718272 80.9527302 65.36492339 78.09359551 65.359375 75.234375 C65.35361759 73.23756917 65.34785994 71.24076335 65.34210205 69.24395752 C65.3316314 65.07148991 65.32576155 60.89904137 65.32226562 56.7265625 C65.3167578 51.37765029 65.29266475 46.02898965 65.26429367 40.68015671 C65.2456944 36.56239065 65.24046337 32.44468593 65.23892975 28.32688141 C65.23590175 26.35408385 65.22786829 24.38128742 65.21474457 22.40853119 C65.19772431 19.6559451 65.19955322 16.90398428 65.20605469 14.15136719 C65.1968399 13.33675018 65.18762512 12.52213318 65.1781311 11.68283081 C65.2025124 8.39408982 65.33978156 5.98010848 66.90240479 3.05010986 C69.41795851 0.79592438 71.44994476 1.17056214 74.75 1.3125 C75.83667969 1.34859375 76.92335938 1.3846875 78.04296875 1.421875 C79.29013672 1.49148438 79.29013672 1.49148438 80.5625 1.5625 C82.6699218 5.82204026 82.75258072 9.53306188 82.5390625 14.17578125 C82.50138763 15.30114792 82.50138763 15.30114792 82.46295166 16.44924927 C82.4081436 18.07413605 82.34885727 19.69887666 82.2855835 21.32345581 C82.11727628 25.70180007 81.9886123 30.08129185 81.859375 34.4609375 C81.8320932 35.36949997 81.8048114 36.27806244 81.77670288 37.2141571 C81.49270125 47.14259454 81.44010132 57.06805437 81.4375 67 C81.43518372 67.81973297 81.43286743 68.63946594 81.43048096 69.48403931 C81.4101187 77.49537908 81.50160483 85.44582626 82.06640625 93.44140625 C82.73156972 102.98234483 82.67202699 112.50271153 82.625 122.0625 C82.61996804 123.86848832 82.61540817 125.67447803 82.61132812 127.48046875 C82.60047283 131.84118084 82.58330475 136.20182449 82.5625 140.5625 C80.67051281 140.84011216 78.77348334 141.08349115 76.875 141.3125 C75.29138672 141.52132812 75.29138672 141.52132812 73.67578125 141.734375 C69.6543188 141.51236202 68.31851008 140.45221603 65.5625 137.5625 C64.17211914 134.91210938 64.17211914 134.91210938 63.09765625 131.90625 C62.68966797 130.80023438 62.28167969 129.69421875 61.86132812 128.5546875 C61.2493457 126.82605469 61.2493457 126.82605469 60.625 125.0625 C57.83492777 117.31971583 54.87291948 109.89304313 51.1003418 102.57324219 C48.39071673 97.26841661 45.93291197 91.8455076 43.4375 86.4375 C42.87437985 85.2218341 42.31106199 84.00625978 41.74755859 82.79077148 C38.91385557 76.67412716 36.09693628 70.55010296 33.296875 64.41796875 C32.26101577 62.1533717 31.22457371 59.88904113 30.1875 57.625 C29.69266113 56.54452393 29.19782227 55.46404785 28.68798828 54.35083008 C25.60377995 47.6694203 22.35297407 41.15696345 18.671875 34.78515625 C17.5625 32.5625 17.5625 32.5625 17.5625 29.5625 C16.5725 29.5625 15.5825 29.5625 14.5625 29.5625 C14.62807098 30.60881592 14.69364197 31.65513184 14.76119995 32.7331543 C15.49852519 44.94365166 15.86748507 57.14617173 16.1328125 69.375 C16.17850803 71.40714769 16.22431709 73.43929283 16.27023315 75.47143555 C16.36469974 79.68664308 16.45680636 83.90189424 16.54736328 88.1171875 C16.66391296 93.5265725 16.78809135 98.93575404 16.9141407 104.34492493 C17.01036363 108.52083811 17.10185048 112.69684494 17.19195175 116.87289429 C17.23575798 118.86969693 17.28123417 120.86646366 17.32840347 122.8631897 C17.39331076 125.63397301 17.45166726 128.40481822 17.50830078 131.17578125 C17.52902649 132.00057983 17.5497522 132.82537842 17.57110596 133.6751709 C17.67668579 139.33412842 17.67668579 139.33412842 16.5625 141.5625 C11.27814392 142.32772096 5.89682444 142.39609127 0.5625 142.5625 C-0.80672607 142.60552246 -0.80672607 142.60552246 -2.20361328 142.64941406 C-5.0524833 142.7261873 -7.90036576 142.77457711 -10.75 142.8125 C-11.66297852 142.83393066 -12.57595703 142.85536133 -13.51660156 142.87744141 C-14.37350586 142.88179199 -15.23041016 142.88614258 -16.11328125 142.890625 C-16.87552002 142.8999707 -17.63775879 142.90931641 -18.4230957 142.91894531 C-20.4375 142.5625 -20.4375 142.5625 -22.14526367 141.47949219 C-25.70854186 136.19348042 -24.53483001 128.27543288 -24.421875 122.12890625 C-24.40646667 121.11527512 -24.39105835 120.10164398 -24.37518311 119.05729675 C-24.32064486 115.74633166 -24.25526222 112.43571949 -24.1875 109.125 C-24.16582764 107.98913452 -24.14415527 106.85326904 -24.12182617 105.6829834 C-23.78795651 88.8815532 -22.94577375 72.19384697 -21.52661133 55.45166016 C-20.53597613 43.68759479 -19.99658116 31.96559239 -19.81640625 20.16113281 C-19.52706565 5.59363732 -19.52706565 5.59363732 -15.74365234 1.91601562 C-11.06225086 -0.83156958 -5.28785598 0.00830119 0 0 Z " transform="translate(1004.4375,320.4375)"/>
<path d="M0 0 C3.12935059 -0.07198707 6.25875239 -0.12130035 9.3886261 -0.16407776 C10.88106747 -0.18800829 12.37340182 -0.2200147 13.86549377 -0.26020813 C15.9458736 -0.31358413 18.0242412 -0.33510454 20.10520935 -0.34849548 C21.2847821 -0.36831482 22.46435486 -0.38813416 23.67967224 -0.40855408 C26.5700531 0.17494202 26.5700531 0.17494202 28.43992615 2.44642639 C29.47259389 4.93964192 29.98990413 6.68775499 30.1169281 9.35462952 C30.17686951 10.50125061 30.17686951 10.50125061 30.23802185 11.67103577 C30.26509216 12.45607483 30.29216248 13.24111389 30.3200531 14.04994202 C30.38386169 15.21589905 30.38386169 15.21589905 30.44895935 16.40541077 C30.66406759 21.14575898 30.39248396 25.50203938 29.5700531 30.17494202 C28.32469788 30.12950256 28.32469788 30.12950256 27.05418396 30.08314514 C23.89507642 29.96918497 20.73589317 29.85768041 17.5766449 29.74769592 C15.5685235 29.67708587 13.56049708 29.60379034 11.55247498 29.53041077 C-1.10074722 29.09301543 -13.72080311 28.9466528 -26.3674469 29.67494202 C-27.6967926 29.74648499 -27.6967926 29.74648499 -29.05299377 29.81947327 C-31.17884129 29.93438394 -33.30442827 30.05410035 -35.4299469 30.17494202 C-36.55009489 38.21001937 -36.54436495 46.13423279 -36.4924469 54.23744202 C-36.48742004 55.59356015 -36.48285924 56.94968009 -36.47877502 58.30580139 C-36.46706769 61.59556196 -36.45066901 64.88522795 -36.4299469 68.17494202 C-35.83304047 68.18302887 -35.23613403 68.19111572 -34.62113953 68.19944763 C-28.4245372 68.28531398 -22.22826142 68.38480895 -16.03199768 68.49232483 C-13.71760021 68.53067603 -11.40314188 68.56551791 -9.08863831 68.59681702 C-5.76729026 68.64233442 -2.44636349 68.70035044 0.8747406 68.76087952 C1.91435944 68.77243073 2.95397827 68.78398193 4.02510071 68.79588318 C4.98594574 68.81575287 5.94679077 68.83562256 6.93675232 68.85609436 C7.78502594 68.86941803 8.63329956 68.8827417 9.50727844 68.89646912 C11.5700531 69.17494202 11.5700531 69.17494202 13.5700531 71.17494202 C13.88890076 73.14613342 13.88890076 73.14613342 13.9841156 75.52650452 C14.04212341 76.80267639 14.04212341 76.80267639 14.1013031 78.10462952 C14.1322406 78.99408264 14.1631781 79.88353577 14.1950531 80.79994202 C14.25306091 82.14572327 14.25306091 82.14572327 14.3122406 83.51869202 C14.40664667 85.73723472 14.49222058 87.95576605 14.5700531 90.17494202 C13.37517273 90.19999817 12.18029236 90.22505432 10.94920349 90.25086975 C6.4818243 90.34561693 2.01457645 90.44566847 -2.45265198 90.54725647 C-4.37970388 90.59035245 -6.30678777 90.63204329 -8.23390198 90.67225647 C-11.01679594 90.73057844 -13.79953259 90.79408848 -16.58229065 90.85853577 C-17.43266403 90.87524826 -18.28303741 90.89196075 -19.15917969 90.90917969 C-28.42560787 90.52357749 -28.42560787 90.52357749 -36.4299469 93.17494202 C-36.50314311 95.87149055 -36.52237227 98.5418566 -36.4924469 101.23744202 C-36.48793518 101.9960553 -36.48342346 102.75466858 -36.47877502 103.53627014 C-36.4669537 105.41586073 -36.44901768 107.295411 -36.4299469 109.17494202 C-35.23391342 109.18374138 -35.23391342 109.18374138 -34.01371765 109.19271851 C-26.50889372 109.25055999 -19.00440505 109.32258653 -11.49987984 109.41065693 C-7.64146629 109.45543454 -3.78316013 109.49467385 0.07542419 109.52137756 C3.7973881 109.54733755 7.51894034 109.58768671 11.24065018 109.63812828 C12.66239944 109.65484677 14.08421999 109.66632996 15.50605392 109.67255592 C17.49348396 109.68214213 19.48078632 109.71186652 21.46800232 109.74256897 C22.60051422 109.75367203 23.73302612 109.76477509 24.89985657 109.7762146 C25.78102142 109.90779465 26.66218628 110.03937469 27.5700531 110.17494202 C29.72674882 113.4099856 29.81838887 114.29685165 29.80052185 118.02650452 C29.79858826 118.95978577 29.79665466 119.89306702 29.79466248 120.85462952 C29.78241638 121.82658264 29.77017029 122.79853577 29.7575531 123.79994202 C29.7565863 125.26947327 29.7565863 125.26947327 29.75559998 126.76869202 C29.71031334 134.03468178 29.71031334 134.03468178 28.5700531 135.17494202 C26.28106902 135.30969805 23.98793184 135.3741356 21.69529724 135.41200256 C20.97659958 135.42511475 20.25790192 135.43822693 19.51742554 135.45173645 C17.13007534 135.49368253 14.74269124 135.52809872 12.35520935 135.56166077 C10.70232934 135.58730145 9.04945155 135.61308549 7.39657593 135.63900757 C3.92718091 135.69205272 0.4577543 135.74096906 -3.01173401 135.78749084 C-7.46546042 135.84787829 -11.91883847 135.92208903 -16.37229061 135.99986553 C-19.78732775 136.05736826 -23.20244934 136.10571238 -26.61766243 136.15145302 C-28.26001018 136.17491431 -29.90231402 136.20168428 -31.54455376 136.23177147 C-33.8382889 136.27278381 -36.13183889 136.30105354 -38.42579651 136.32606506 C-39.73294113 136.34525497 -41.04008575 136.36444489 -42.38684082 136.38421631 C-45.4299469 136.17494202 -45.4299469 136.17494202 -47.4299469 134.17494202 C-47.67883587 132.13792706 -47.67883587 132.13792706 -47.67718506 129.58013916 C-47.68137955 128.61172089 -47.68557404 127.64330261 -47.68989563 126.64553833 C-47.68146637 125.04590492 -47.68146637 125.04590492 -47.67286682 123.41395569 C-47.67476517 122.29337769 -47.67666351 121.17279968 -47.67861938 120.01826477 C-47.68233998 116.29307678 -47.67159758 112.56808162 -47.66041565 108.84291077 C-47.65922355 106.25374372 -47.65877075 103.66457624 -47.6590271 101.07540894 C-47.65745957 95.63370379 -47.64939794 90.19206844 -47.63575745 84.75038147 C-47.62011746 78.48854159 -47.61475634 72.22676298 -47.615493 65.96490496 C-47.61610761 59.92184829 -47.61084846 53.87881624 -47.60270119 47.83576393 C-47.59953399 45.27591889 -47.5975517 42.71607209 -47.59680748 40.1562252 C-47.59461781 36.55720951 -47.58581513 32.95826775 -47.57521057 29.35926819 C-47.57566376 28.31511246 -47.57611694 27.27095673 -47.57658386 26.19515991 C-47.55366078 20.82347247 -47.40417555 15.46478172 -47.10836792 10.10092163 C-47.05167089 9.03910832 -46.99497385 7.97729502 -46.93655872 6.88330555 C-46.37831983 3.898942 -45.89326708 2.89994557 -43.4299469 1.17494202 C-40.32423401 0.74256897 -40.32423401 0.74256897 -36.45729065 0.66322327 C-35.40227356 0.6358886 -35.40227356 0.6358886 -34.32594299 0.60800171 C-32.00648158 0.5523841 -29.68735466 0.51880053 -27.3674469 0.48744202 C-25.75944439 0.45792311 -24.15145277 0.4278052 -22.54347229 0.39710999 C-19.1997142 0.33695279 -15.85601685 0.28826345 -12.51197815 0.24671936 C-8.34039809 0.19303506 -4.17063086 0.10249325 0 0 Z " transform="translate(472.42994689941406,324.82505798339844)"/>
<path d="M0 0 C1.875 -0.36328125 1.875 -0.36328125 4 -0.3125 C4.70125 -0.30863281 5.4025 -0.30476563 6.125 -0.30078125 C8 0 8 0 10 2 C10.00910444 4.97715045 9.89837897 7.8488569 9.6875 10.8125 C9.58624592 12.42311492 9.48605366 14.03379682 9.38671875 15.64453125 C9.32726074 16.59811523 9.26780273 17.55169922 9.20654297 18.53417969 C8.23636668 34.81387543 7.78897729 51.07463356 7.5541687 67.38092041 C7.46196301 73.75407401 7.35856469 80.12704025 7.25390625 86.5 C7.223218 88.37403 7.223218 88.37403 7.19190979 90.28591919 C6.93454349 105.52800958 6.50461343 120.76424403 6 136 C4.52093108 136.02689216 3.04172517 136.04634621 1.5625 136.0625 C0.73878906 136.07410156 -0.08492188 136.08570313 -0.93359375 136.09765625 C-3 136 -3 136 -4 135 C-4.12363297 133.03712234 -4.1779544 131.06984842 -4.20532227 129.10327148 C-4.22550415 127.82432007 -4.24568604 126.54536865 -4.26647949 125.22766113 C-4.28325082 123.85880691 -4.29989406 122.48995112 -4.31640625 121.12109375 C-4.33505737 119.88363403 -4.3537085 118.64617432 -4.3729248 117.37121582 C-4.44147877 112.72671993 -4.50146339 108.08210076 -4.5625 103.4375 C-4.706875 93.063125 -4.85125 82.68875 -5 72 C-26.78 72 -48.56 72 -71 72 C-70.96038734 92.68836743 -70.96038734 92.68836743 -70.90991211 113.37670898 C-70.90699324 115.95817016 -70.90444462 118.53963178 -70.90234375 121.12109375 C-70.89973038 121.79608414 -70.897117 122.47107452 -70.89442444 123.16651917 C-70.88714339 125.14542498 -70.8866616 127.12435228 -70.88647461 129.10327148 C-70.884254 130.22023911 -70.88203339 131.33720673 -70.87974548 132.48802185 C-71 135 -71 135 -72 136 C-75.80588144 136.25208722 -79.62425456 136.18522344 -83.4375 136.1875 C-84.51322266 136.19974609 -85.58894531 136.21199219 -86.69726562 136.22460938 C-87.72400391 136.22654297 -88.75074219 136.22847656 -89.80859375 136.23046875 C-90.75532959 136.23457764 -91.70206543 136.23868652 -92.67749023 136.24291992 C-95 136 -95 136 -97 134 C-97.91999901 130.56495911 -98.13185548 127.30726462 -98.15390015 123.76281738 C-98.16250061 122.72822891 -98.17110107 121.69364044 -98.17996216 120.62770081 C-98.18422211 119.50339157 -98.18848206 118.37908234 -98.19287109 117.22070312 C-98.20104858 116.02831528 -98.20922607 114.83592743 -98.21765137 113.60740662 C-98.24244675 109.66536791 -98.25915947 105.72333676 -98.2734375 101.78125 C-98.27880049 100.42147313 -98.284178 99.06169631 -98.28956985 97.70191956 C-98.31117449 92.04688179 -98.3299126 86.39184677 -98.34119225 80.73677826 C-98.35744743 72.64232619 -98.39068999 64.54835273 -98.44759309 56.45408106 C-98.48628709 50.7554354 -98.50582378 45.05691786 -98.51111281 39.35814428 C-98.51476484 35.95685223 -98.52677033 32.55607205 -98.55921555 29.15492249 C-98.59071117 25.36267297 -98.59092701 21.57164196 -98.58349609 17.77929688 C-98.59990143 16.65498764 -98.61630676 15.53067841 -98.63320923 14.37229919 C-98.5650969 5.90101334 -98.5650969 5.90101334 -95.59732056 2.80125427 C-92.98325409 0.98838663 -91.86985653 0.38110347 -88.75 0.44140625 C-87.9765625 0.44849609 -87.203125 0.45558594 -86.40625 0.46289062 C-85.6121875 0.49576172 -84.818125 0.52863281 -84 0.5625 C-83.2059375 0.56830078 -82.411875 0.57410156 -81.59375 0.58007812 C-77.42678608 0.66688987 -73.64458174 0.77196468 -70 3 C-68.86788476 6.13699701 -68.93632487 9.01508494 -69.07006836 12.31933594 C-69.11018539 13.38013367 -69.15030243 14.4409314 -69.19163513 15.53387451 C-69.2649984 17.24187225 -69.2649984 17.24187225 -69.33984375 18.984375 C-69.38565079 20.15510559 -69.43145782 21.32583618 -69.47865295 22.53204346 C-69.62621122 26.27160009 -69.781759 30.01077608 -69.9375 33.75 C-70.03893777 36.28513525 -70.13985563 38.82029135 -70.24023438 41.35546875 C-70.48745704 47.57056716 -70.74124027 53.78537182 -71 60 C-48.32131131 60.95684053 -25.69636439 61.11544438 -3 61 C-3.00523682 60.09572266 -3.01047363 59.19144531 -3.01586914 58.25976562 C-3.16852461 27.75959 -3.16852461 27.75959 -2.625 13.0625 C-2.5787146 11.58330078 -2.5787146 11.58330078 -2.53149414 10.07421875 C-2.4927417 9.17445313 -2.45398926 8.2746875 -2.4140625 7.34765625 C-2.36693115 6.18762085 -2.36693115 6.18762085 -2.31884766 5.00415039 C-2 3 -2 3 0 0 Z " transform="translate(289,324)"/>
<path d="M0 0 C0 0.66 0 1.32 0 2 C0.66 2 1.32 2 2 2 C0.88257832 7.15733082 -0.27996024 12.30342404 -1.5 17.4375 C-1.7371875 18.44683594 -1.974375 19.45617187 -2.21875 20.49609375 C-3 23 -3 23 -5 25 C-5.87114729 27.30383551 -6.66830928 29.59960818 -7.4375 31.9375 C-10.15909036 39.93922243 -13.28147672 47.74886917 -16.5 55.5625 C-20.98281021 66.44544737 -20.98281021 66.44544737 -25.1875 77.4375 C-27.39545072 83.44056602 -29.73502136 89.37962665 -32.125 95.3125 C-33.12966806 97.82111716 -34.13295784 100.33027802 -35.13525391 102.83984375 C-35.84962234 104.62435303 -36.57043931 106.40627939 -37.29296875 108.1875 C-39.80424315 114.65330996 -41.11300754 121.09595544 -42.2890625 127.91015625 C-43 131 -43 131 -45 133 C-47.88916016 133.22705078 -47.88916016 133.22705078 -51.5390625 133.1953125 C-53.49199219 133.18564453 -53.49199219 133.18564453 -55.484375 133.17578125 C-56.86458595 133.15906929 -58.24479429 133.14213939 -59.625 133.125 C-61.01301452 133.11497006 -62.40103589 133.10584423 -63.7890625 133.09765625 C-67.19288026 133.07401863 -70.59635506 133.04106867 -74 133 C-75.42745398 128.71763806 -73.58987673 125.85316071 -71.9375 121.875 C-71.28716975 120.25205925 -70.63877877 118.62834026 -69.9921875 117.00390625 C-69.66057617 116.1752002 -69.32896484 115.34649414 -68.98730469 114.49267578 C-67.45344106 110.62008734 -65.98714443 106.72645422 -64.5625 102.8125 C-64.3039624 102.13106934 -64.0454248 101.44963867 -63.77905273 100.74755859 C-60.79219789 92.45722013 -62.14234295 86.60156692 -65.125 78.6875 C-65.71295999 77.08798157 -66.29879744 75.48768176 -66.8828125 73.88671875 C-67.211604 72.98687256 -67.54039551 72.08702637 -67.87915039 71.15991211 C-69.22406076 67.36832533 -70.49131856 63.55400698 -71.75390625 59.734375 C-75.31707201 48.96738506 -79.06393483 38.26605894 -82.8125 27.5625 C-83.83213301 24.64723162 -84.85140382 21.73183688 -85.87052917 18.81639099 C-86.49784777 17.02220188 -87.1255267 15.2281387 -87.75361633 13.43421936 C-88.03448593 12.63165207 -88.31535553 11.82908478 -88.60473633 11.00219727 C-88.97396965 9.94779198 -88.97396965 9.94779198 -89.35066223 8.87208557 C-91.02332399 4.04968636 -91.02332399 4.04968636 -89.98046875 1.828125 C-87.13230431 -0.80094987 -85.11628131 -0.4006448 -81.3125 -0.25 C-79.54326172 -0.19585937 -79.54326172 -0.19585937 -77.73828125 -0.140625 C-76.38283203 -0.07101562 -76.38283203 -0.07101562 -75 0 C-72.70550907 4.19337997 -70.88563277 8.0410548 -69.75 12.6875 C-67.59643787 21.13789053 -64.22034987 29.18358503 -61.05517578 37.29443359 C-60.03964499 39.89834666 -59.03216015 42.50521769 -58.02734375 45.11328125 C-57.41436204 46.70063654 -56.80109474 48.28788158 -56.1875 49.875 C-55.9100293 50.59308838 -55.63255859 51.31117676 -55.34667969 52.05102539 C-52.40328792 59.6254803 -52.40328792 59.6254803 -49 67 C-48.70609375 65.95779297 -48.70609375 65.95779297 -48.40625 64.89453125 C-44.84701322 52.79005791 -40.22126516 41.07048154 -35.546875 29.359375 C-33.73482186 24.79483608 -32.04472938 20.27130155 -30.7265625 15.5390625 C-30.4030481 14.38035645 -30.4030481 14.38035645 -30.07299805 13.19824219 C-29.65894374 11.68455 -29.25864123 10.1670077 -28.87426758 8.64550781 C-28.03965145 5.56063405 -27.35389778 3.36041124 -25.08984375 1.0546875 C-17.64768519 -2.70116822 -7.95175949 -0.7352267 0 0 Z " transform="translate(408,328)"/>
<path d="M0 0 C0.00586624 1.10310013 0.01173248 2.20620026 0.01777649 3.34272766 C0.0751595 13.77318835 0.14800184 24.20344367 0.23571491 34.63369465 C0.28031208 39.99512013 0.31959144 45.35647149 0.34643555 50.71801758 C0.37257508 55.89882346 0.41305208 61.07934244 0.46318626 66.25996971 C0.47978322 68.22972209 0.49134191 70.19952401 0.49761391 72.16933632 C0.47526127 86.83833097 0.47526127 86.83833097 4 101 C4.56460938 102.52753906 4.56460938 102.52753906 5.140625 104.0859375 C7.91624529 109.81309767 10.42391775 112.85711728 16 116 C20.90565779 117.51841789 25.87920276 117.56554593 30.8125 116.25 C33.38438757 114.78034996 34.53194377 113.56909841 36 111 C36.83718788 107.5506435 37.16739599 104.24349834 37.29663086 100.7019043 C37.33567032 99.66089066 37.37470978 98.61987701 37.41493225 97.5473175 C37.45202805 96.42181992 37.48912384 95.29632233 37.52734375 94.13671875 C37.58933205 92.35644539 37.58933205 92.35644539 37.65257263 90.54020691 C38.08071514 77.62291876 38.3083305 64.70264016 38.50268555 51.7800293 C38.55297054 48.44459459 38.60597148 45.10922959 38.66069984 41.77386665 C38.71407143 38.50161145 38.76501476 35.22931806 38.81640625 31.95703125 C38.83700104 30.71664093 38.85759583 29.47625061 38.8788147 28.19827271 C38.95810985 23.02455931 39.02108553 17.85873697 38.92138672 12.68505859 C38.90873276 11.92972336 38.8960788 11.17438812 38.88304138 10.39616394 C38.84375979 8.51204897 38.78420658 6.62838406 38.72241211 4.74487305 C39 2 39 2 40.23193359 0.12304688 C42.46621319 -1.29613099 43.81283252 -1.34605035 46.44921875 -1.29296875 C47.29677734 -1.28330078 48.14433594 -1.27363281 49.01757812 -1.26367188 C49.89865234 -1.23853516 50.77972656 -1.21339844 51.6875 -1.1875 C52.58017578 -1.17396484 53.47285156 -1.16042969 54.39257812 -1.14648438 C56.59566166 -1.11114079 58.79752582 -1.06180493 61 -1 C62.18863862 1.37727724 62.15586198 2.89493162 62.20532227 5.54931641 C62.22524734 6.50259827 62.24517242 7.45588013 62.26570129 8.43804932 C62.28243393 9.48200867 62.29916656 10.52596802 62.31640625 11.6015625 C62.33736862 12.68967224 62.35833099 13.77778198 62.37992859 14.89886475 C62.44667021 18.47416624 62.50541404 22.04953196 62.5625 25.625 C62.58268188 26.83939758 62.60286377 28.05379517 62.62365723 29.30499268 C62.74558172 36.71367703 62.85421432 44.12246903 62.95318604 51.53149414 C62.99676034 54.75996948 63.04377047 57.98837798 63.09130859 61.21679688 C63.15584174 65.77377112 63.20178561 70.3305446 63.23117065 74.88787842 C63.24351074 76.51784934 63.26084637 78.14779182 63.28372192 79.77764893 C63.50403462 96.35167512 62.34245328 111.98473886 51 125 C48.44921875 126.94921875 48.44921875 126.94921875 45.6875 128.6875 C44.78386719 129.26886719 43.88023437 129.85023438 42.94921875 130.44921875 C34.58457326 134.84758201 24.4704423 135.5683075 15.30859375 133.34765625 C6.26654316 129.6836601 -1.30111549 122.24572936 -5.15625 113.32421875 C-8.20847996 105.26851182 -9.15088045 98.01812559 -9.17700195 89.4621582 C-9.18357315 88.52000458 -9.19014435 87.57785095 -9.19691467 86.60714722 C-9.21654826 83.50502434 -9.22828236 80.40294942 -9.23828125 77.30078125 C-9.24235678 76.23986959 -9.2464323 75.17895794 -9.25063133 74.08589745 C-9.27144039 68.48036268 -9.28576956 62.87485208 -9.29516602 57.26928711 C-9.30627513 51.47175669 -9.34074127 45.67460537 -9.38033772 39.87720966 C-9.40641241 35.42235069 -9.41484923 30.96758384 -9.41844749 26.51265526 C-9.42332995 24.37434489 -9.43499076 22.23603908 -9.45348549 20.09780312 C-9.47770273 17.11477507 -9.47694497 14.13275339 -9.4699707 11.1496582 C-9.48278076 10.26284866 -9.49559082 9.37603912 -9.50878906 8.46235657 C-9.45837596 2.56983615 -9.45837596 2.56983615 -7.28312683 -0.13435364 C-4.45287519 -1.20744209 -2.85831808 -0.87337497 0 0 Z " transform="translate(895,326)"/>
<path d="M0 0 C1.45212891 -0.03867187 1.45212891 -0.03867187 2.93359375 -0.078125 C5.5625 0.25 5.5625 0.25 7.20629883 1.31738281 C9.23916139 4.21425771 8.95069476 7.09103516 8.890625 10.5 C8.88925034 11.24519394 8.88787567 11.99038788 8.88645935 12.75816345 C8.87729052 15.25579958 8.84553234 17.75257295 8.8125 20.25 C8.79844304 22.01374712 8.78519603 23.77750086 8.77270508 25.54125977 C8.73280692 30.39327878 8.6696105 35.24478293 8.60284424 40.09649658 C8.56119645 43.35189209 8.52917929 46.60726729 8.49951172 49.86279297 C8.44703953 55.52524257 8.3775499 61.18726113 8.29602051 66.84936523 C8.26568869 69.04950849 8.23930874 71.24971029 8.21716309 73.44995117 C8.00133647 93.42039561 7.64521812 114.93067193 -5.4375 131.25 C-13.29812325 138.9090688 -23.01396859 139.60645378 -33.43359375 139.53515625 C-44.83688927 138.98742374 -53.78817667 134.47302258 -61.4375 126.25 C-61.91058594 125.80527344 -62.38367188 125.36054688 -62.87109375 124.90234375 C-71.29574325 116.34640101 -74.57077148 103.07486508 -74.640625 91.4296875 C-74.64632507 90.68921173 -74.65202515 89.94873596 -74.65789795 89.18582153 C-74.66730674 87.62763889 -74.67386546 86.06943672 -74.67773438 84.51123047 C-74.68749742 82.12562941 -74.71858084 79.74087008 -74.75 77.35546875 C-74.75652543 75.83854676 -74.7617777 74.32161865 -74.765625 72.8046875 C-74.7779718 72.09214813 -74.7903186 71.37960876 -74.80303955 70.64547729 C-74.78999242 67.75728803 -74.77046741 65.74284635 -73.12670898 63.30981445 C-70.32722988 61.55341341 -67.50121393 61.71163825 -64.25 61.5625 C-62.34154297 61.46388672 -62.34154297 61.46388672 -60.39453125 61.36328125 C-58.93080078 61.30720703 -58.93080078 61.30720703 -57.4375 61.25 C-56.03254635 64.0599073 -56.3812146 66.36208871 -56.4375 69.5 C-56.82732507 91.96719213 -56.82732507 91.96719213 -48.4375 112.25 C-42.48693855 117.00488789 -35.81501649 117.95690489 -28.4375 117.25 C-23.26876355 115.36142322 -19.04084881 112.41012732 -16.49609375 107.39453125 C-13.61289889 100.19350834 -13.29169321 92.90680761 -13.31152344 85.24121094 C-13.3096553 84.36718628 -13.30778717 83.49316162 -13.30586243 82.59265137 C-13.30187749 80.70642133 -13.29978535 78.82018653 -13.29940033 76.93395233 C-13.29596814 72.9251662 -13.2745959 68.91653989 -13.25416946 64.90781021 C-13.21619236 57.45316506 -13.18489517 49.99869848 -13.18701172 42.54394531 C-13.18779666 37.34852712 -13.16454002 32.15370526 -13.1251297 26.95844269 C-13.11464536 24.97927783 -13.11316349 23.00004436 -13.12078094 21.02086639 C-13.13035426 18.26031728 -13.10931839 15.5015947 -13.08105469 12.74121094 C-13.09125137 11.92142761 -13.10144806 11.10164429 -13.11195374 10.25701904 C-13.07000732 7.98040771 -13.07000732 7.98040771 -12.4375 4.25 C-10.02227783 2.28179932 -10.02227783 2.28179932 -7.4375 1.25 C-4.85741408 -0.04004296 -2.88008426 0.04589776 0 0 Z " transform="translate(855.4375,322.75)"/>
<path d="M0 0 C0.7734375 -0.01224609 1.546875 -0.02449219 2.34375 -0.03710938 C10.31320584 -0.05716673 16.78767566 1.20612499 23.25 6.1875 C23.85457031 6.62449219 24.45914063 7.06148438 25.08203125 7.51171875 C40.53692076 19.61347641 48.84256862 42.28803868 51.25 61.1875 C52.72448864 84.48718092 50.56486309 107.46188825 34.6875 125.6875 C33.22766385 127.20631943 31.75065352 128.70899635 30.25 130.1875 C29.73695313 130.71085938 29.22390625 131.23421875 28.6953125 131.7734375 C20.52300951 139.39168605 9.68345296 140.38917756 -0.875 140.4375 C-2.53015625 140.4684375 -2.53015625 140.4684375 -4.21875 140.5 C-16.01730511 140.55605014 -23.57041766 137.50736145 -32.75 130.1875 C-33.45253906 129.63578125 -34.15507813 129.0840625 -34.87890625 128.515625 C-50.76742282 114.46159469 -54.63693205 89.35716514 -55.93359375 69.35546875 C-56.42808551 51.3501513 -49.94086596 31.05240318 -37.625 17.69921875 C-25.41663558 5.03436918 -25.41663558 5.03436918 -17.125 2.5 C-16.39023437 2.26925781 -15.65546875 2.03851563 -14.8984375 1.80078125 C-9.78865271 0.34216996 -5.30437345 0.00433364 0 0 Z M-22.24047852 19.45532227 C-27.63356463 24.79357796 -31.77801229 30.7340786 -35.75 37.1875 C-36.17925781 37.86039062 -36.60851562 38.53328125 -37.05078125 39.2265625 C-46.28180569 55.40758604 -45.74648174 77.86296262 -41.1953125 95.31445312 C-37.5158227 108.11317228 -31.85723442 120.3945097 -19.75 127.1875 C-11.67755762 131.22372119 -2.16317243 131.34409378 6.5625 129.4375 C16.75137154 125.98364524 22.79921004 121.13429367 27.9375 111.5 C37.82453645 90.42070777 39.36730307 63.72638104 31.8046875 41.62890625 C27.32077867 30.01211669 20.12602112 20.50381425 9.75 13.5 C-2.76815447 8.80569208 -12.77166855 10.58194131 -22.24047852 19.45532227 Z " transform="translate(577.75,321.8125)"/>
</svg>